<?xml version='1.0' encoding='UTF-8'?>
<!DOCTYPE svg PUBLIC "-//W3C//DTD SVG 1.1//EN" "http://www.w3.org/Graphics/SVG/1.1/DTD/svg11.dtd">
<!-- Generated by graphviz version 2.50.0 (0)
 -->
<!-- Pages: 1 -->
<svg xmlns="http://www.w3.org/2000/svg" xmlns:xlink="http://www.w3.org/1999/xlink" width="1902pt" height="337pt" viewBox="0.00 0.00 1901.50 337.00">
  <style>
    @import url("https://fonts.googleapis.com/css?family=Roboto:400,400i,700,700i");
    </style>
  <g id="graph0" class="graph" transform="scale(1 1) rotate(0) translate(4 333)">
    <polygon fill="#eeeeee" stroke="transparent" points="-4,4 -4,-333 1897.5,-333 1897.5,4 -4,4"/>
    <!-- User -->
    <g id="node1" class="table-hover">
      <title>User</title>
      <g id="a_node1">
        <a xlink:href="http://User_details.html" xlink:title="&lt;TABLE&gt;">
          <polygon fill="#3f51b5" stroke="transparent" points="8.5,-306 8.5,-325 239.5,-325 239.5,-306 8.5,-306"/>
          <polygon fill="none" stroke="black" points="8.5,-306 8.5,-325 239.5,-325 239.5,-306 8.5,-306"/>
          <text text-anchor="start" x="111" y="-312.4" font-family="Roboto" font-size="12.00" fill="white">User</text>
          <polygon fill="#bbdefb" stroke="transparent" points="8.5,-287 8.5,-306 96.5,-306 96.5,-287 8.5,-287"/>
          <polygon fill="none" stroke="black" points="8.5,-287 8.5,-306 96.5,-306 96.5,-287 8.5,-287"/>
          <text text-anchor="start" x="32.5" y="-293.4" font-family="Roboto" font-size="12.00">user_id</text>
          <polygon fill="#bbdefb" stroke="transparent" points="96.5,-287 96.5,-306 239.5,-306 239.5,-287 96.5,-287"/>
          <polygon fill="none" stroke="black" points="96.5,-287 96.5,-306 239.5,-306 239.5,-287 96.5,-287"/>
          <text text-anchor="start" x="106" y="-293.4" font-family="Roboto" font-size="12.00">INTEGER (PK,Unique)</text>
          <polygon fill="#bbdefb" stroke="transparent" points="8.5,-268 8.5,-287 96.5,-287 96.5,-268 8.5,-268"/>
          <polygon fill="none" stroke="black" points="8.5,-268 8.5,-287 96.5,-287 96.5,-268 8.5,-268"/>
          <text text-anchor="start" x="22.5" y="-274.4" font-family="Roboto" font-size="12.00">user_email</text>
          <polygon fill="#bbdefb" stroke="transparent" points="96.5,-268 96.5,-287 239.5,-287 239.5,-268 96.5,-268"/>
          <polygon fill="none" stroke="black" points="96.5,-268 96.5,-287 239.5,-287 239.5,-268 96.5,-268"/>
          <text text-anchor="start" x="99.5" y="-274.4" font-family="Roboto" font-size="12.00">VARCHAR(100) (Unique)</text>
          <polygon fill="#bbdefb" stroke="transparent" points="8.5,-249 8.5,-268 96.5,-268 96.5,-249 8.5,-249"/>
          <polygon fill="none" stroke="black" points="8.5,-249 8.5,-268 96.5,-268 96.5,-249 8.5,-249"/>
          <text text-anchor="start" x="28" y="-255.4" font-family="Roboto" font-size="12.00">user_first</text>
          <polygon fill="#bbdefb" stroke="transparent" points="96.5,-249 96.5,-268 239.5,-268 239.5,-249 96.5,-249"/>
          <polygon fill="none" stroke="black" points="96.5,-249 96.5,-268 239.5,-268 239.5,-249 96.5,-249"/>
          <text text-anchor="start" x="119" y="-255.4" font-family="Roboto" font-size="12.00">VARCHAR(100) ()</text>
          <polygon fill="#bbdefb" stroke="transparent" points="8.5,-230 8.5,-249 96.5,-249 96.5,-230 8.5,-230"/>
          <polygon fill="none" stroke="black" points="8.5,-230 8.5,-249 96.5,-249 96.5,-230 8.5,-230"/>
          <text text-anchor="start" x="28" y="-236.4" font-family="Roboto" font-size="12.00">user_last</text>
          <polygon fill="#bbdefb" stroke="transparent" points="96.5,-230 96.5,-249 239.5,-249 239.5,-230 96.5,-230"/>
          <polygon fill="none" stroke="black" points="96.5,-230 96.5,-249 239.5,-249 239.5,-230 96.5,-230"/>
          <text text-anchor="start" x="119" y="-236.4" font-family="Roboto" font-size="12.00">VARCHAR(100) ()</text>
          <polygon fill="#bbdefb" stroke="transparent" points="8.5,-211 8.5,-230 96.5,-230 96.5,-211 8.5,-211"/>
          <polygon fill="none" stroke="black" points="8.5,-211 8.5,-230 96.5,-230 96.5,-211 8.5,-211"/>
          <text text-anchor="start" x="11.5" y="-217.4" font-family="Roboto" font-size="12.00">user_password</text>
          <polygon fill="#bbdefb" stroke="transparent" points="96.5,-211 96.5,-230 239.5,-230 239.5,-211 96.5,-211"/>
          <polygon fill="none" stroke="black" points="96.5,-211 96.5,-230 239.5,-230 239.5,-211 96.5,-211"/>
          <text text-anchor="start" x="119" y="-217.4" font-family="Roboto" font-size="12.00">VARCHAR(255) ()</text>
        </a>
      </g>
    </g>
    <!-- Role -->
    <g id="node2" class="table-hover">
      <title>Role</title>
      <g id="a_node2">
        <a xlink:href="http://Role_details.html" xlink:title="&lt;TABLE&gt;">
          <polygon fill="#3f51b5" stroke="transparent" points="27.5,-99 27.5,-118 222.5,-118 222.5,-99 27.5,-99"/>
          <polygon fill="none" stroke="black" points="27.5,-99 27.5,-118 222.5,-118 222.5,-99 27.5,-99"/>
          <text text-anchor="start" x="112" y="-105.4" font-family="Roboto" font-size="12.00" fill="white">Role</text>
          <polygon fill="#bbdefb" stroke="transparent" points="27.5,-80 27.5,-99 92.5,-99 92.5,-80 27.5,-80"/>
          <polygon fill="none" stroke="black" points="27.5,-80 27.5,-99 92.5,-99 92.5,-80 27.5,-80"/>
          <text text-anchor="start" x="41.5" y="-86.4" font-family="Roboto" font-size="12.00">role_id</text>
          <polygon fill="#bbdefb" stroke="transparent" points="92.5,-80 92.5,-99 222.5,-99 222.5,-80 92.5,-80"/>
          <polygon fill="none" stroke="black" points="92.5,-80 92.5,-99 222.5,-99 222.5,-80 92.5,-80"/>
          <text text-anchor="start" x="95.5" y="-86.4" font-family="Roboto" font-size="12.00">INTEGER (PK,Unique)</text>
          <polygon fill="#bbdefb" stroke="transparent" points="27.5,-61 27.5,-80 92.5,-80 92.5,-61 27.5,-61"/>
          <polygon fill="none" stroke="black" points="27.5,-61 27.5,-80 92.5,-80 92.5,-61 27.5,-61"/>
          <text text-anchor="start" x="31" y="-67.4" font-family="Roboto" font-size="12.00">role_name</text>
          <polygon fill="#bbdefb" stroke="transparent" points="92.5,-61 92.5,-80 222.5,-80 222.5,-61 92.5,-61"/>
          <polygon fill="none" stroke="black" points="92.5,-61 92.5,-80 222.5,-80 222.5,-61 92.5,-61"/>
          <text text-anchor="start" x="112" y="-67.4" font-family="Roboto" font-size="12.00">VARCHAR(50) ()</text>
          <polygon fill="#bbdefb" stroke="transparent" points="27.5,-42 27.5,-61 92.5,-61 92.5,-42 27.5,-42"/>
          <polygon fill="none" stroke="black" points="27.5,-42 27.5,-61 92.5,-61 92.5,-42 27.5,-42"/>
          <text text-anchor="start" x="30.5" y="-48.4" font-family="Roboto" font-size="12.00">description</text>
          <polygon fill="#bbdefb" stroke="transparent" points="92.5,-42 92.5,-61 222.5,-61 222.5,-42 92.5,-42"/>
          <polygon fill="none" stroke="black" points="92.5,-42 92.5,-61 222.5,-61 222.5,-42 92.5,-42"/>
          <text text-anchor="start" x="108.5" y="-48.4" font-family="Roboto" font-size="12.00">VARCHAR(255) ()</text>
        </a>
      </g>
    </g>
    <!-- User&#45;&gt;Role -->
    <g id="edge1" class="edge-hover edge-from-None edge-to-None">
      <title>User-&gt;Role</title>
      <g id="a_edge1">
        <a xlink:title="Relation between User and Role">
          <path fill="none" stroke="#1e88e5" stroke-dasharray="5,2" d="M95.3,-206.86C93.36,-200.92 91.7,-194.91 90.5,-189 86.64,-169.98 90.82,-149.57 97.4,-131.67"/>
          <polygon fill="#1e88e5" stroke="#1e88e5" points="100.8,-132.59 101.27,-122.01 94.3,-129.99 100.8,-132.59"/>
        </a>
      </g>
      <text text-anchor="middle" x="113.5" y="-181" font-family="Roboto" font-size="10.00">user_roles</text>
    </g>
    <!-- Role&#45;&gt;User -->
    <g id="edge2" class="edge-hover edge-from-None edge-to-None">
      <title>Role-&gt;User</title>
      <g id="a_edge2">
        <a xlink:title="Relation between Role and User">
          <path fill="none" stroke="#1e88e5" stroke-dasharray="5,2" d="M132.84,-122.23C135.95,-142.34 138.33,-166.91 136.5,-189 136.29,-191.51 136.05,-194.07 135.77,-196.65"/>
          <polygon fill="#1e88e5" stroke="#1e88e5" points="132.29,-196.31 134.57,-206.66 139.24,-197.14 132.29,-196.31"/>
        </a>
      </g>
      <text text-anchor="middle" x="150" y="-181" font-family="Roboto" font-size="10.00">users</text>
    </g>
    <!-- UserRole -->
    <g id="node3" class="table-hover">
      <title>UserRole</title>
      <g id="a_node3">
        <a xlink:href="http://UserRole_details.html" xlink:title="&lt;TABLE&gt;">
          <polygon fill="#3f51b5" stroke="transparent" points="273.5,-277 273.5,-296 407.5,-296 407.5,-277 273.5,-277"/>
          <polygon fill="none" stroke="black" points="273.5,-277 273.5,-296 407.5,-296 407.5,-277 273.5,-277"/>
          <text text-anchor="start" x="314.5" y="-283.4" font-family="Roboto" font-size="12.00" fill="white">UserRole</text>
          <polygon fill="#bbdefb" stroke="transparent" points="273.5,-258 273.5,-277 319.5,-277 319.5,-258 273.5,-258"/>
          <polygon fill="none" stroke="black" points="273.5,-258 273.5,-277 319.5,-277 319.5,-258 273.5,-258"/>
          <text text-anchor="start" x="276.5" y="-264.4" font-family="Roboto" font-size="12.00">user_id</text>
          <polygon fill="#bbdefb" stroke="transparent" points="319.5,-258 319.5,-277 407.5,-277 407.5,-258 319.5,-258"/>
          <polygon fill="none" stroke="black" points="319.5,-258 319.5,-277 407.5,-277 407.5,-258 319.5,-258"/>
          <text text-anchor="start" x="322.5" y="-264.4" font-family="Roboto" font-size="12.00">INTEGER (PK)</text>
          <polygon fill="#bbdefb" stroke="transparent" points="273.5,-239 273.5,-258 319.5,-258 319.5,-239 273.5,-239"/>
          <polygon fill="none" stroke="black" points="273.5,-239 273.5,-258 319.5,-258 319.5,-239 273.5,-239"/>
          <text text-anchor="start" x="278" y="-245.4" font-family="Roboto" font-size="12.00">role_id</text>
          <polygon fill="#bbdefb" stroke="transparent" points="319.5,-239 319.5,-258 407.5,-258 407.5,-239 319.5,-239"/>
          <polygon fill="none" stroke="black" points="319.5,-239 319.5,-258 407.5,-258 407.5,-239 319.5,-239"/>
          <text text-anchor="start" x="322.5" y="-245.4" font-family="Roboto" font-size="12.00">INTEGER (PK)</text>
        </a>
      </g>
    </g>
    <!-- Tag -->
    <g id="node4" class="table-hover">
      <title>Tag</title>
      <g id="a_node4">
        <a xlink:href="http://Tag_details.html" xlink:title="&lt;TABLE&gt;">
          <polygon fill="#3f51b5" stroke="transparent" points="442.5,-287 442.5,-306 627.5,-306 627.5,-287 442.5,-287"/>
          <polygon fill="none" stroke="black" points="442.5,-287 442.5,-306 627.5,-306 627.5,-287 442.5,-287"/>
          <text text-anchor="start" x="525" y="-293.4" font-family="Roboto" font-size="12.00" fill="white">Tag</text>
          <polygon fill="#bbdefb" stroke="transparent" points="442.5,-268 442.5,-287 530.5,-287 530.5,-268 442.5,-268"/>
          <polygon fill="none" stroke="black" points="442.5,-268 442.5,-287 530.5,-287 530.5,-268 442.5,-268"/>
          <text text-anchor="start" x="469.5" y="-274.4" font-family="Roboto" font-size="12.00">tag_id</text>
          <polygon fill="#bbdefb" stroke="transparent" points="530.5,-268 530.5,-287 627.5,-287 627.5,-268 530.5,-268"/>
          <polygon fill="none" stroke="black" points="530.5,-268 530.5,-287 627.5,-287 627.5,-268 530.5,-268"/>
          <text text-anchor="start" x="538" y="-274.4" font-family="Roboto" font-size="12.00">INTEGER (PK)</text>
          <polygon fill="#bbdefb" stroke="transparent" points="442.5,-249 442.5,-268 530.5,-268 530.5,-249 442.5,-249"/>
          <polygon fill="none" stroke="black" points="442.5,-249 442.5,-268 530.5,-268 530.5,-249 442.5,-249"/>
          <text text-anchor="start" x="459.5" y="-255.4" font-family="Roboto" font-size="12.00">tag_name</text>
          <polygon fill="#bbdefb" stroke="transparent" points="530.5,-249 530.5,-268 627.5,-268 627.5,-249 530.5,-249"/>
          <polygon fill="none" stroke="black" points="530.5,-249 530.5,-268 627.5,-268 627.5,-249 530.5,-249"/>
          <text text-anchor="start" x="533.5" y="-255.4" font-family="Roboto" font-size="12.00">VARCHAR(50) ()</text>
          <polygon fill="#bbdefb" stroke="transparent" points="442.5,-230 442.5,-249 530.5,-249 530.5,-230 442.5,-230"/>
          <polygon fill="none" stroke="black" points="442.5,-230 442.5,-249 530.5,-249 530.5,-230 442.5,-230"/>
          <text text-anchor="start" x="445.5" y="-236.4" font-family="Roboto" font-size="12.00">tag_description</text>
          <polygon fill="#bbdefb" stroke="transparent" points="530.5,-230 530.5,-249 627.5,-249 627.5,-230 530.5,-230"/>
          <polygon fill="none" stroke="black" points="530.5,-230 530.5,-249 627.5,-249 627.5,-230 530.5,-230"/>
          <text text-anchor="start" x="544" y="-236.4" font-family="Roboto" font-size="12.00">VARCHAR ()</text>
        </a>
      </g>
    </g>
    <!-- Image -->
    <g id="node5" class="table-hover">
      <title>Image</title>
      <g id="a_node5">
        <a xlink:href="http://Image_details.html" xlink:title="&lt;TABLE&gt;">
          <polygon fill="#3f51b5" stroke="transparent" points="661.5,-268 661.5,-287 861.5,-287 861.5,-268 661.5,-268"/>
          <polygon fill="none" stroke="black" points="661.5,-268 661.5,-287 861.5,-287 861.5,-268 661.5,-268"/>
          <text text-anchor="start" x="744.5" y="-274.4" font-family="Roboto" font-size="12.00" fill="white">Image</text>
          <polygon fill="#bbdefb" stroke="transparent" points="661.5,-249 661.5,-268 726.5,-268 726.5,-249 661.5,-249"/>
          <polygon fill="none" stroke="black" points="661.5,-249 661.5,-268 726.5,-268 726.5,-249 661.5,-249"/>
          <text text-anchor="start" x="664.5" y="-255.4" font-family="Roboto" font-size="12.00">image_link</text>
          <polygon fill="#bbdefb" stroke="transparent" points="726.5,-249 726.5,-268 861.5,-268 861.5,-249 726.5,-249"/>
          <polygon fill="none" stroke="black" points="726.5,-249 726.5,-268 861.5,-268 861.5,-249 726.5,-249"/>
          <text text-anchor="start" x="729.5" y="-255.4" font-family="Roboto" font-size="12.00">VARCHAR (PK,Unique)</text>
        </a>
      </g>
    </g>
    <!-- ImageRequest -->
    <g id="node6" class="table-hover">
      <title>ImageRequest</title>
      <g id="a_node6">
        <a xlink:href="http://ImageRequest_details.html" xlink:title="&lt;TABLE&gt;">
          <polygon fill="#3f51b5" stroke="transparent" points="639.5,-137 639.5,-156 881.5,-156 881.5,-137 639.5,-137"/>
          <polygon fill="none" stroke="black" points="639.5,-137 639.5,-156 881.5,-156 881.5,-137 639.5,-137"/>
          <text text-anchor="start" x="721" y="-143.4" font-family="Roboto" font-size="12.00" fill="white">ImageRequest</text>
          <polygon fill="#bbdefb" stroke="transparent" points="639.5,-118 639.5,-137 738.5,-137 738.5,-118 639.5,-118"/>
          <polygon fill="none" stroke="black" points="639.5,-118 639.5,-137 738.5,-137 738.5,-118 639.5,-118"/>
          <text text-anchor="start" x="662" y="-124.4" font-family="Roboto" font-size="12.00">imgreq_id</text>
          <polygon fill="#bbdefb" stroke="transparent" points="738.5,-118 738.5,-137 881.5,-137 881.5,-118 738.5,-118"/>
          <polygon fill="none" stroke="black" points="738.5,-118 738.5,-137 881.5,-137 881.5,-118 738.5,-118"/>
          <text text-anchor="start" x="769" y="-124.4" font-family="Roboto" font-size="12.00">INTEGER (PK)</text>
          <polygon fill="#bbdefb" stroke="transparent" points="639.5,-99 639.5,-118 738.5,-118 738.5,-99 639.5,-99"/>
          <polygon fill="none" stroke="black" points="639.5,-99 639.5,-118 738.5,-118 738.5,-99 639.5,-99"/>
          <text text-anchor="start" x="652" y="-105.4" font-family="Roboto" font-size="12.00">imgreq_name</text>
          <polygon fill="#bbdefb" stroke="transparent" points="738.5,-99 738.5,-118 881.5,-118 881.5,-99 738.5,-99"/>
          <polygon fill="none" stroke="black" points="738.5,-99 738.5,-118 881.5,-118 881.5,-99 738.5,-99"/>
          <text text-anchor="start" x="764.5" y="-105.4" font-family="Roboto" font-size="12.00">VARCHAR(50) ()</text>
          <polygon fill="#bbdefb" stroke="transparent" points="639.5,-80 639.5,-99 738.5,-99 738.5,-80 639.5,-80"/>
          <polygon fill="none" stroke="black" points="639.5,-80 639.5,-99 738.5,-99 738.5,-80 639.5,-80"/>
          <text text-anchor="start" x="652.5" y="-86.4" font-family="Roboto" font-size="12.00">imgreq_email</text>
          <polygon fill="#bbdefb" stroke="transparent" points="738.5,-80 738.5,-99 881.5,-99 881.5,-80 738.5,-80"/>
          <polygon fill="none" stroke="black" points="738.5,-80 738.5,-99 881.5,-99 881.5,-80 738.5,-80"/>
          <text text-anchor="start" x="741.5" y="-86.4" font-family="Roboto" font-size="12.00">VARCHAR(100) (Unique)</text>
          <polygon fill="#bbdefb" stroke="transparent" points="639.5,-61 639.5,-80 738.5,-80 738.5,-61 639.5,-61"/>
          <polygon fill="none" stroke="black" points="639.5,-61 639.5,-80 738.5,-80 738.5,-61 639.5,-61"/>
          <text text-anchor="start" x="642.5" y="-67.4" font-family="Roboto" font-size="12.00">imgreq_message</text>
          <polygon fill="#bbdefb" stroke="transparent" points="738.5,-61 738.5,-80 881.5,-80 881.5,-61 738.5,-61"/>
          <polygon fill="none" stroke="black" points="738.5,-61 738.5,-80 881.5,-80 881.5,-61 738.5,-61"/>
          <text text-anchor="start" x="775" y="-67.4" font-family="Roboto" font-size="12.00">VARCHAR ()</text>
          <polygon fill="#bbdefb" stroke="transparent" points="639.5,-42 639.5,-61 738.5,-61 738.5,-42 639.5,-42"/>
          <polygon fill="none" stroke="black" points="639.5,-42 639.5,-61 738.5,-61 738.5,-42 639.5,-42"/>
          <text text-anchor="start" x="657.5" y="-48.4" font-family="Roboto" font-size="12.00">imgreq_link</text>
          <polygon fill="#bbdefb" stroke="transparent" points="738.5,-42 738.5,-61 881.5,-61 881.5,-42 738.5,-42"/>
          <polygon fill="none" stroke="black" points="738.5,-42 738.5,-61 881.5,-61 881.5,-42 738.5,-42"/>
          <text text-anchor="start" x="775" y="-48.4" font-family="Roboto" font-size="12.00">VARCHAR ()</text>
          <polygon fill="#bbdefb" stroke="transparent" points="639.5,-23 639.5,-42 738.5,-42 738.5,-23 639.5,-23"/>
          <polygon fill="none" stroke="black" points="639.5,-23 639.5,-42 738.5,-42 738.5,-23 639.5,-23"/>
          <text text-anchor="start" x="644" y="-29.4" font-family="Roboto" font-size="12.00">imgreq_startdate</text>
          <polygon fill="#bbdefb" stroke="transparent" points="738.5,-23 738.5,-42 881.5,-42 881.5,-23 738.5,-23"/>
          <polygon fill="none" stroke="black" points="738.5,-23 738.5,-42 881.5,-42 881.5,-23 738.5,-23"/>
          <text text-anchor="start" x="774.5" y="-29.4" font-family="Roboto" font-size="12.00">DATETIME ()</text>
          <polygon fill="#bbdefb" stroke="transparent" points="639.5,-4 639.5,-23 738.5,-23 738.5,-4 639.5,-4"/>
          <polygon fill="none" stroke="black" points="639.5,-4 639.5,-23 738.5,-23 738.5,-4 639.5,-4"/>
          <text text-anchor="start" x="645" y="-10.4" font-family="Roboto" font-size="12.00">imgreq_enddate</text>
          <polygon fill="#bbdefb" stroke="transparent" points="738.5,-4 738.5,-23 881.5,-23 881.5,-4 738.5,-4"/>
          <polygon fill="none" stroke="black" points="738.5,-4 738.5,-23 881.5,-23 881.5,-4 738.5,-4"/>
          <text text-anchor="start" x="774.5" y="-10.4" font-family="Roboto" font-size="12.00">DATETIME ()</text>
        </a>
      </g>
    </g>
    <!-- Image&#45;&gt;ImageRequest -->
    <g id="edge3" class="edge-hover edge-from-None edge-to-None">
      <title>Image-&gt;ImageRequest</title>
      <g id="a_edge3">
        <a xlink:title="Relation between Image and ImageRequest">
          <path fill="none" stroke="#1e88e5" stroke-dasharray="5,2" d="M744.13,-244.92C733.57,-230.05 721.09,-209.47 715.5,-189 713.8,-182.76 713.21,-176.41 713.5,-170.06"/>
          <polygon fill="#1e88e5" stroke="#1e88e5" points="716.98,-170.44 714.62,-160.11 710.02,-169.65 716.98,-170.44"/>
        </a>
      </g>
      <text text-anchor="middle" x="750.5" y="-181" font-family="Roboto" font-size="10.00">image_requests</text>
    </g>
    <!-- ImageRequest&#45;&gt;Image -->
    <g id="edge4" class="edge-hover edge-from-None edge-to-None">
      <title>ImageRequest-&gt;Image</title>
      <g id="a_edge4">
        <a xlink:title="Relation between ImageRequest and Image">
          <path fill="none" stroke="#1e88e5" stroke-dasharray="5,2" d="M785.82,-160.06C786.85,-169.76 786.92,-179.58 785.5,-189 783.16,-204.56 778.33,-221.3 773.62,-235.26"/>
          <polygon fill="#1e88e5" stroke="#1e88e5" points="770.25,-234.29 770.24,-244.88 776.86,-236.61 770.25,-234.29"/>
        </a>
      </g>
      <text text-anchor="middle" x="802.5" y="-181" font-family="Roboto" font-size="10.00">images</text>
    </g>
    <!-- ImageTag -->
    <g id="node7" class="table-hover">
      <title>ImageTag</title>
      <g id="a_node7">
        <a xlink:href="http://ImageTag_details.html" xlink:title="&lt;TABLE&gt;">
          <polygon fill="#3f51b5" stroke="transparent" points="895.5,-277 895.5,-296 1053.5,-296 1053.5,-277 895.5,-277"/>
          <polygon fill="none" stroke="black" points="895.5,-277 895.5,-296 1053.5,-296 1053.5,-277 895.5,-277"/>
          <text text-anchor="start" x="948" y="-283.4" font-family="Roboto" font-size="12.00" fill="white">ImageTag</text>
          <polygon fill="#bbdefb" stroke="transparent" points="895.5,-258 895.5,-277 960.5,-277 960.5,-258 895.5,-258"/>
          <polygon fill="none" stroke="black" points="895.5,-258 895.5,-277 960.5,-277 960.5,-258 895.5,-258"/>
          <text text-anchor="start" x="898.5" y="-264.4" font-family="Roboto" font-size="12.00">image_link</text>
          <polygon fill="#bbdefb" stroke="transparent" points="960.5,-258 960.5,-277 1053.5,-277 1053.5,-258 960.5,-258"/>
          <polygon fill="none" stroke="black" points="960.5,-258 960.5,-277 1053.5,-277 1053.5,-258 960.5,-258"/>
          <text text-anchor="start" x="963.5" y="-264.4" font-family="Roboto" font-size="12.00">VARCHAR (PK)</text>
          <polygon fill="#bbdefb" stroke="transparent" points="895.5,-239 895.5,-258 960.5,-258 960.5,-239 895.5,-239"/>
          <polygon fill="none" stroke="black" points="895.5,-239 895.5,-258 960.5,-258 960.5,-239 895.5,-239"/>
          <text text-anchor="start" x="911" y="-245.4" font-family="Roboto" font-size="12.00">tag_id</text>
          <polygon fill="#bbdefb" stroke="transparent" points="960.5,-239 960.5,-258 1053.5,-258 1053.5,-239 960.5,-239"/>
          <polygon fill="none" stroke="black" points="960.5,-239 960.5,-258 1053.5,-258 1053.5,-239 960.5,-239"/>
          <text text-anchor="start" x="966" y="-245.4" font-family="Roboto" font-size="12.00">INTEGER (PK)</text>
        </a>
      </g>
    </g>
    <!-- Room -->
    <g id="node8" class="table-hover">
      <title>Room</title>
      <g id="a_node8">
        <a xlink:href="http://Room_details.html" xlink:title="&lt;TABLE&gt;">
          <polygon fill="#3f51b5" stroke="transparent" points="1088.5,-277 1088.5,-296 1307.5,-296 1307.5,-277 1088.5,-277"/>
          <polygon fill="none" stroke="black" points="1088.5,-277 1088.5,-296 1307.5,-296 1307.5,-277 1088.5,-277"/>
          <text text-anchor="start" x="1181.5" y="-283.4" font-family="Roboto" font-size="12.00" fill="white">Room</text>
          <polygon fill="#bbdefb" stroke="transparent" points="1088.5,-258 1088.5,-277 1177.5,-277 1177.5,-258 1088.5,-258"/>
          <polygon fill="none" stroke="black" points="1088.5,-258 1088.5,-277 1177.5,-277 1177.5,-258 1088.5,-258"/>
          <text text-anchor="start" x="1095.5" y="-264.4" font-family="Roboto" font-size="12.00">room_number</text>
          <polygon fill="#bbdefb" stroke="transparent" points="1177.5,-258 1177.5,-277 1307.5,-277 1307.5,-258 1177.5,-258"/>
          <polygon fill="none" stroke="black" points="1177.5,-258 1177.5,-277 1307.5,-277 1307.5,-258 1177.5,-258"/>
          <text text-anchor="start" x="1180.5" y="-264.4" font-family="Roboto" font-size="12.00">INTEGER (PK,Unique)</text>
          <polygon fill="#bbdefb" stroke="transparent" points="1088.5,-239 1088.5,-258 1177.5,-258 1177.5,-239 1088.5,-239"/>
          <polygon fill="none" stroke="black" points="1088.5,-239 1088.5,-258 1177.5,-258 1177.5,-239 1088.5,-239"/>
          <text text-anchor="start" x="1091.5" y="-245.4" font-family="Roboto" font-size="12.00">room_available</text>
          <polygon fill="#bbdefb" stroke="transparent" points="1177.5,-239 1177.5,-258 1307.5,-258 1307.5,-239 1177.5,-239"/>
          <polygon fill="none" stroke="black" points="1177.5,-239 1177.5,-258 1307.5,-258 1307.5,-239 1177.5,-239"/>
          <text text-anchor="start" x="1207.5" y="-245.4" font-family="Roboto" font-size="12.00">BOOLEAN ()</text>
        </a>
      </g>
    </g>
    <!-- Booking -->
    <g id="node9" class="table-hover">
      <title>Booking</title>
      <g id="a_node9">
        <a xlink:href="http://Booking_details.html" xlink:title="&lt;TABLE&gt;">
          <polygon fill="#3f51b5" stroke="transparent" points="1341.5,-306 1341.5,-325 1573.5,-325 1573.5,-306 1341.5,-306"/>
          <polygon fill="none" stroke="black" points="1341.5,-306 1341.5,-325 1573.5,-325 1573.5,-306 1341.5,-306"/>
          <text text-anchor="start" x="1435" y="-312.4" font-family="Roboto" font-size="12.00" fill="white">Booking</text>
          <polygon fill="#bbdefb" stroke="transparent" points="1341.5,-287 1341.5,-306 1443.5,-306 1443.5,-287 1341.5,-287"/>
          <polygon fill="none" stroke="black" points="1341.5,-287 1341.5,-306 1443.5,-306 1443.5,-287 1341.5,-287"/>
          <text text-anchor="start" x="1362.5" y="-293.4" font-family="Roboto" font-size="12.00">booking_id</text>
          <polygon fill="#bbdefb" stroke="transparent" points="1443.5,-287 1443.5,-306 1573.5,-306 1573.5,-287 1443.5,-287"/>
          <polygon fill="none" stroke="black" points="1443.5,-287 1443.5,-306 1573.5,-306 1573.5,-287 1443.5,-287"/>
          <text text-anchor="start" x="1446.5" y="-293.4" font-family="Roboto" font-size="12.00">INTEGER (PK,Unique)</text>
          <polygon fill="#bbdefb" stroke="transparent" points="1341.5,-268 1341.5,-287 1443.5,-287 1443.5,-268 1341.5,-268"/>
          <polygon fill="none" stroke="black" points="1341.5,-268 1341.5,-287 1443.5,-287 1443.5,-268 1341.5,-268"/>
          <text text-anchor="start" x="1351.5" y="-274.4" font-family="Roboto" font-size="12.00">bookingtype_id</text>
          <polygon fill="#bbdefb" stroke="transparent" points="1443.5,-268 1443.5,-287 1573.5,-287 1573.5,-268 1443.5,-268"/>
          <polygon fill="none" stroke="black" points="1443.5,-268 1443.5,-287 1573.5,-287 1573.5,-268 1443.5,-268"/>
          <text text-anchor="start" x="1476" y="-274.4" font-family="Roboto" font-size="12.00">INTEGER ()</text>
          <polygon fill="#bbdefb" stroke="transparent" points="1341.5,-249 1341.5,-268 1443.5,-268 1443.5,-249 1341.5,-249"/>
          <polygon fill="none" stroke="black" points="1341.5,-249 1341.5,-268 1443.5,-268 1443.5,-249 1341.5,-249"/>
          <text text-anchor="start" x="1344.5" y="-255.4" font-family="Roboto" font-size="12.00">booking_startdate</text>
          <polygon fill="#bbdefb" stroke="transparent" points="1443.5,-249 1443.5,-268 1573.5,-268 1573.5,-249 1443.5,-249"/>
          <polygon fill="none" stroke="black" points="1443.5,-249 1443.5,-268 1573.5,-268 1573.5,-249 1443.5,-249"/>
          <text text-anchor="start" x="1473" y="-255.4" font-family="Roboto" font-size="12.00">DATETIME ()</text>
          <polygon fill="#bbdefb" stroke="transparent" points="1341.5,-230 1341.5,-249 1443.5,-249 1443.5,-230 1341.5,-230"/>
          <polygon fill="none" stroke="black" points="1341.5,-230 1341.5,-249 1443.5,-249 1443.5,-230 1341.5,-230"/>
          <text text-anchor="start" x="1345.5" y="-236.4" font-family="Roboto" font-size="12.00">booking_enddate</text>
          <polygon fill="#bbdefb" stroke="transparent" points="1443.5,-230 1443.5,-249 1573.5,-249 1573.5,-230 1443.5,-230"/>
          <polygon fill="none" stroke="black" points="1443.5,-230 1443.5,-249 1573.5,-249 1573.5,-230 1443.5,-230"/>
          <text text-anchor="start" x="1473" y="-236.4" font-family="Roboto" font-size="12.00">DATETIME ()</text>
          <polygon fill="#bbdefb" stroke="transparent" points="1341.5,-211 1341.5,-230 1443.5,-230 1443.5,-211 1341.5,-211"/>
          <polygon fill="none" stroke="black" points="1341.5,-211 1341.5,-230 1443.5,-230 1443.5,-211 1341.5,-211"/>
          <text text-anchor="start" x="1351" y="-217.4" font-family="Roboto" font-size="12.00">booking_userid</text>
          <polygon fill="#bbdefb" stroke="transparent" points="1443.5,-211 1443.5,-230 1573.5,-230 1573.5,-211 1443.5,-211"/>
          <polygon fill="none" stroke="black" points="1443.5,-211 1443.5,-230 1573.5,-230 1573.5,-211 1443.5,-211"/>
          <text text-anchor="start" x="1456.5" y="-217.4" font-family="Roboto" font-size="12.00">INTEGER (Unique)</text>
        </a>
      </g>
    </g>
    <!-- Club -->
    <g id="node10" class="table-hover">
      <title>Club</title>
      <g id="a_node10">
        <a xlink:href="http://Club_details.html" xlink:title="&lt;TABLE&gt;">
          <polygon fill="#3f51b5" stroke="transparent" points="1607.5,-296 1607.5,-315 1885.5,-315 1885.5,-296 1607.5,-296"/>
          <polygon fill="none" stroke="black" points="1607.5,-296 1607.5,-315 1885.5,-315 1885.5,-296 1607.5,-296"/>
          <text text-anchor="start" x="1733.5" y="-302.4" font-family="Roboto" font-size="12.00" fill="white">Club</text>
          <polygon fill="#bbdefb" stroke="transparent" points="1607.5,-277 1607.5,-296 1749.5,-296 1749.5,-277 1607.5,-277"/>
          <polygon fill="none" stroke="black" points="1607.5,-277 1607.5,-296 1749.5,-296 1749.5,-277 1607.5,-277"/>
          <text text-anchor="start" x="1658.5" y="-283.4" font-family="Roboto" font-size="12.00">club_id</text>
          <polygon fill="#bbdefb" stroke="transparent" points="1749.5,-277 1749.5,-296 1885.5,-296 1885.5,-277 1749.5,-277"/>
          <polygon fill="none" stroke="black" points="1749.5,-277 1749.5,-296 1885.5,-296 1885.5,-277 1749.5,-277"/>
          <text text-anchor="start" x="1776.5" y="-283.4" font-family="Roboto" font-size="12.00">INTEGER (PK)</text>
          <polygon fill="#bbdefb" stroke="transparent" points="1607.5,-258 1607.5,-277 1749.5,-277 1749.5,-258 1607.5,-258"/>
          <polygon fill="none" stroke="black" points="1607.5,-258 1607.5,-277 1749.5,-277 1749.5,-258 1607.5,-258"/>
          <text text-anchor="start" x="1648.5" y="-264.4" font-family="Roboto" font-size="12.00">club_name</text>
          <polygon fill="#bbdefb" stroke="transparent" points="1749.5,-258 1749.5,-277 1885.5,-277 1885.5,-258 1749.5,-258"/>
          <polygon fill="none" stroke="black" points="1749.5,-258 1749.5,-277 1885.5,-277 1885.5,-258 1749.5,-258"/>
          <text text-anchor="start" x="1752.5" y="-264.4" font-family="Roboto" font-size="12.00">VARCHAR(50) (Unique)</text>
          <polygon fill="#bbdefb" stroke="transparent" points="1607.5,-239 1607.5,-258 1749.5,-258 1749.5,-239 1607.5,-239"/>
          <polygon fill="none" stroke="black" points="1607.5,-239 1607.5,-258 1749.5,-258 1749.5,-239 1607.5,-239"/>
          <text text-anchor="start" x="1634.5" y="-245.4" font-family="Roboto" font-size="12.00">club_description</text>
          <polygon fill="#bbdefb" stroke="transparent" points="1749.5,-239 1749.5,-258 1885.5,-258 1885.5,-239 1749.5,-239"/>
          <polygon fill="none" stroke="black" points="1749.5,-239 1749.5,-258 1885.5,-258 1885.5,-239 1749.5,-239"/>
          <text text-anchor="start" x="1782.5" y="-245.4" font-family="Roboto" font-size="12.00">VARCHAR ()</text>
          <polygon fill="#bbdefb" stroke="transparent" points="1607.5,-220 1607.5,-239 1749.5,-239 1749.5,-220 1607.5,-220"/>
          <polygon fill="none" stroke="black" points="1607.5,-220 1607.5,-239 1749.5,-239 1749.5,-220 1607.5,-220"/>
          <text text-anchor="start" x="1610.5" y="-226.4" font-family="Roboto" font-size="12.00">club_upcoming_activities</text>
          <polygon fill="#bbdefb" stroke="transparent" points="1749.5,-220 1749.5,-239 1885.5,-239 1885.5,-220 1749.5,-220"/>
          <polygon fill="none" stroke="black" points="1749.5,-220 1749.5,-239 1885.5,-239 1885.5,-220 1749.5,-220"/>
          <text text-anchor="start" x="1782.5" y="-226.4" font-family="Roboto" font-size="12.00">VARCHAR ()</text>
        </a>
      </g>
    </g>
    <!-- ClubRequest -->
    <g id="node11" class="table-hover">
      <title>ClubRequest</title>
      <g id="a_node11">
        <a xlink:href="http://ClubRequest_details.html" xlink:title="&lt;TABLE&gt;">
          <polygon fill="#3f51b5" stroke="transparent" points="1653.5,-118 1653.5,-137 1840.5,-137 1840.5,-118 1653.5,-118"/>
          <polygon fill="none" stroke="black" points="1653.5,-118 1653.5,-137 1840.5,-137 1840.5,-118 1653.5,-118"/>
          <text text-anchor="start" x="1711.5" y="-124.4" font-family="Roboto" font-size="12.00" fill="white">ClubRequest</text>
          <polygon fill="#bbdefb" stroke="transparent" points="1653.5,-99 1653.5,-118 1736.5,-118 1736.5,-99 1653.5,-99"/>
          <polygon fill="none" stroke="black" points="1653.5,-99 1653.5,-118 1736.5,-118 1736.5,-99 1653.5,-99"/>
          <text text-anchor="start" x="1666.5" y="-105.4" font-family="Roboto" font-size="12.00">clubreq_id</text>
          <polygon fill="#bbdefb" stroke="transparent" points="1736.5,-99 1736.5,-118 1840.5,-118 1840.5,-99 1736.5,-99"/>
          <polygon fill="none" stroke="black" points="1736.5,-99 1736.5,-118 1840.5,-118 1840.5,-99 1736.5,-99"/>
          <text text-anchor="start" x="1747.5" y="-105.4" font-family="Roboto" font-size="12.00">INTEGER (PK)</text>
          <polygon fill="#bbdefb" stroke="transparent" points="1653.5,-80 1653.5,-99 1736.5,-99 1736.5,-80 1653.5,-80"/>
          <polygon fill="none" stroke="black" points="1653.5,-80 1653.5,-99 1736.5,-99 1736.5,-80 1653.5,-80"/>
          <text text-anchor="start" x="1656.5" y="-86.4" font-family="Roboto" font-size="12.00">clubreq_name</text>
          <polygon fill="#bbdefb" stroke="transparent" points="1736.5,-80 1736.5,-99 1840.5,-99 1840.5,-80 1736.5,-80"/>
          <polygon fill="none" stroke="black" points="1736.5,-80 1736.5,-99 1840.5,-99 1840.5,-80 1736.5,-80"/>
          <text text-anchor="start" x="1743" y="-86.4" font-family="Roboto" font-size="12.00">VARCHAR(50) ()</text>
          <polygon fill="#bbdefb" stroke="transparent" points="1653.5,-61 1653.5,-80 1736.5,-80 1736.5,-61 1653.5,-61"/>
          <polygon fill="none" stroke="black" points="1653.5,-61 1653.5,-80 1736.5,-80 1736.5,-61 1653.5,-61"/>
          <text text-anchor="start" x="1657" y="-67.4" font-family="Roboto" font-size="12.00">clubreq_email</text>
          <polygon fill="#bbdefb" stroke="transparent" points="1736.5,-61 1736.5,-80 1840.5,-80 1840.5,-61 1736.5,-61"/>
          <polygon fill="none" stroke="black" points="1736.5,-61 1736.5,-80 1840.5,-80 1840.5,-61 1736.5,-61"/>
          <text text-anchor="start" x="1739.5" y="-67.4" font-family="Roboto" font-size="12.00">VARCHAR(100) ()</text>
          <polygon fill="#bbdefb" stroke="transparent" points="1653.5,-42 1653.5,-61 1736.5,-61 1736.5,-42 1653.5,-42"/>
          <polygon fill="none" stroke="black" points="1653.5,-42 1653.5,-61 1736.5,-61 1736.5,-42 1653.5,-42"/>
          <text text-anchor="start" x="1660" y="-48.4" font-family="Roboto" font-size="12.00">clubreq_date</text>
          <polygon fill="#bbdefb" stroke="transparent" points="1736.5,-42 1736.5,-61 1840.5,-61 1840.5,-42 1736.5,-42"/>
          <polygon fill="none" stroke="black" points="1736.5,-42 1736.5,-61 1840.5,-61 1840.5,-42 1736.5,-42"/>
          <text text-anchor="start" x="1753" y="-48.4" font-family="Roboto" font-size="12.00">DATETIME ()</text>
          <polygon fill="#bbdefb" stroke="transparent" points="1653.5,-23 1653.5,-42 1736.5,-42 1736.5,-23 1653.5,-23"/>
          <polygon fill="none" stroke="black" points="1653.5,-23 1653.5,-42 1736.5,-42 1736.5,-23 1653.5,-23"/>
          <text text-anchor="start" x="1675" y="-29.4" font-family="Roboto" font-size="12.00">club_id</text>
          <polygon fill="#bbdefb" stroke="transparent" points="1736.5,-23 1736.5,-42 1840.5,-42 1840.5,-23 1736.5,-23"/>
          <polygon fill="none" stroke="black" points="1736.5,-23 1736.5,-42 1840.5,-42 1840.5,-23 1736.5,-23"/>
          <text text-anchor="start" x="1756" y="-29.4" font-family="Roboto" font-size="12.00">INTEGER ()</text>
        </a>
      </g>
    </g>
    <!-- Club&#45;&gt;ClubRequest -->
    <g id="edge5" class="edge-hover edge-from-None edge-to-None">
      <title>Club-&gt;ClubRequest</title>
      <g id="a_edge5">
        <a xlink:title="Relation between Club and ClubRequest">
          <path fill="none" stroke="#1e88e5" stroke-dasharray="5,2" d="M1723.9,-216.17C1720.83,-207.27 1718.17,-197.99 1716.5,-189 1714.2,-176.62 1714.98,-163.6 1717.43,-151.05"/>
          <polygon fill="#1e88e5" stroke="#1e88e5" points="1720.89,-151.64 1719.72,-141.11 1714.06,-150.07 1720.89,-151.64"/>
        </a>
      </g>
      <text text-anchor="middle" x="1735.5" y="-181" font-family="Roboto" font-size="10.00">requests</text>
    </g>
    <!-- ClubRequest&#45;&gt;Club -->
    <g id="edge6" class="edge-hover edge-from-None edge-to-None">
      <title>ClubRequest-&gt;Club</title>
      <g id="a_edge6">
        <a xlink:title="Relation between ClubRequest and Club">
          <path fill="none" stroke="#1e88e5" stroke-dasharray="5,2" d="M1753.63,-141.23C1754.74,-156.79 1755.29,-173.51 1754.5,-189 1754.22,-194.52 1753.82,-200.26 1753.36,-206"/>
          <polygon fill="#1e88e5" stroke="#1e88e5" points="1749.84,-206.02 1752.46,-216.29 1756.82,-206.63 1749.84,-206.02"/>
        </a>
      </g>
      <text text-anchor="middle" x="1766.5" y="-181" font-family="Roboto" font-size="10.00">clubs</text>
    </g>
  </g>
</svg>
